<svg width="18" height="19" viewBox="0 0 18 19" fill="none" xmlns="http://www.w3.org/2000/svg">
<path fill-rule="evenodd" clip-rule="evenodd" d="M12.4737 0H2.34211C1.32895 0 0.5 0.777273 0.5 1.72727V12.9545C0.5 13.4295 0.914474 13.8182 1.42105 13.8182C1.92763 13.8182 2.34211 13.4295 2.34211 12.9545V2.59091C2.34211 2.11591 2.75658 1.72727 3.26316 1.72727H12.4737C12.9803 1.72727 13.3947 1.33864 13.3947 0.863636C13.3947 0.388636 12.9803 0 12.4737 0ZM13.0171 3.96409L17.4658 8.13546C17.8066 8.455 18 8.89545 18 9.35318V17.2727C18 18.2227 17.1711 19 16.1579 19H6.01711C5.00395 19 4.18421 18.2227 4.18421 17.2727L4.19342 5.18182C4.19342 4.23182 5.01316 3.45455 6.02632 3.45455H11.7092C12.1974 3.45455 12.6671 3.63591 13.0171 3.96409ZM16.6184 9.5H12.4737C11.9671 9.5 11.5526 9.11136 11.5526 8.63636V4.75L16.6184 9.5Z" fill="black"/>
</svg>
