<svg width="20" height="14" viewBox="0 0 20 14" fill="none" xmlns="http://www.w3.org/2000/svg">
<path fill-rule="evenodd" clip-rule="evenodd" d="M17.6207 0.227051H2.16758C1.22322 0.227051 0.450562 0.936995 0.450562 1.8047V12.0595C0.450562 12.9272 1.22322 13.6371 2.16758 13.6371H17.6207C18.5651 13.6371 19.3377 12.9272 19.3377 12.0595V1.8047C19.3377 0.936995 18.5651 0.227051 17.6207 0.227051ZM17.6207 11.2706C17.6207 11.7045 17.2344 12.0595 16.7622 12.0595H9.89414V1.8047H16.7622C17.2344 1.8047 17.6207 2.15968 17.6207 2.59353V11.2706ZM11.3965 4.5656H16.1183C16.4703 4.5656 16.7622 4.8338 16.7622 5.15722C16.7622 5.48064 16.4703 5.74884 16.1183 5.74884H11.3965C11.0445 5.74884 10.7526 5.48064 10.7526 5.15722C10.7526 4.8338 11.0445 4.5656 11.3965 4.5656ZM16.1183 6.53767H11.3965C11.0445 6.53767 10.7526 6.80587 10.7526 7.12929C10.7526 7.4527 11.0445 7.72091 11.3965 7.72091H16.1183C16.4703 7.72091 16.7622 7.4527 16.7622 7.12929C16.7622 6.80587 16.4703 6.53767 16.1183 6.53767ZM11.3965 8.50973H16.1183C16.4703 8.50973 16.7622 8.77793 16.7622 9.10135C16.7622 9.42477 16.4703 9.69297 16.1183 9.69297H11.3965C11.0445 9.69297 10.7526 9.42477 10.7526 9.10135C10.7526 8.77793 11.0445 8.50973 11.3965 8.50973Z" fill="black"/>
</svg>
