<svg width="18" height="17" viewBox="0 0 18 17" fill="none" xmlns="http://www.w3.org/2000/svg">
<path fill-rule="evenodd" clip-rule="evenodd" d="M8.64244 0.437988C3.90348 0.437988 0.057373 3.97193 0.057373 8.32626C0.057373 12.6806 3.90348 16.2145 8.64244 16.2145C13.3814 16.2145 17.2275 12.6806 17.2275 8.32626C17.2275 3.97193 13.3814 0.437988 8.64244 0.437988ZM7.78394 14.5816C4.39283 14.1951 1.77439 11.5447 1.77439 8.32625C1.77439 7.83718 1.84307 7.37177 1.95467 6.91425L6.06692 10.6927V11.4816C6.06692 12.3493 6.83958 13.0592 7.78394 13.0592V14.5816ZM12.0765 11.4816C12.8491 11.4816 13.4844 11.9391 13.7076 12.578C14.8237 11.4579 15.5105 9.96701 15.5105 8.32625C15.5105 5.68368 13.7334 3.41975 11.218 2.48104V2.80446C11.218 3.67217 10.4453 4.38212 9.50095 4.38212H7.78394V5.95977C7.78394 6.39363 7.39761 6.7486 6.92543 6.7486H5.20842V8.32625H10.3595C10.8316 8.32625 11.218 8.68122 11.218 9.11508V11.4816H12.0765Z" fill="black"/>
</svg>
